<svg width="860" height="260" viewBox="0 0 860 260" xmlns="http://www.w3.org/2000/svg">
  <defs>
    <radialGradient id="bgGrad2" cx="38%" cy="32%" r="70%">
      <stop offset="0%" stop-color="#6D28D9"/>
      <stop offset="100%" stop-color="#2E0078"/>
    </radialGradient>
    <pattern id="weave2" x="0" y="0" width="28" height="28" patternUnits="userSpaceOnUse" patternTransform="rotate(45)">
      <line x1="14" y1="0" x2="14" y2="28" stroke="#7C3AED" stroke-width="1.2" opacity="0.35"/>
      <line x1="0" y1="14" x2="28" y2="14" stroke="#7C3AED" stroke-width="1.2" opacity="0.35"/>
      <circle cx="14" cy="14" r="2" fill="#7C3AED" opacity="0.25"/>
    </pattern>
    <clipPath id="iconClip2">
      <rect x="20" y="20" width="220" height="220" rx="48" ry="48"/>
    </clipPath>
    <clipPath id="bagClip2">
      <rect x="82" y="121" width="96" height="66"/>
    </clipPath>
  </defs>

  <!-- ── ICÔNE (220×220 calée à gauche) ── -->
  <rect x="20" y="20" width="220" height="220" rx="48" fill="url(#bgGrad2)"/>
  <rect x="20" y="20" width="220" height="220" rx="48" fill="url(#weave2)" clip-path="url(#iconClip2)"/>

  <!-- Handle -->
  <path d="M 89 122 C 89 83 171 83 171 122"
        fill="none" stroke="#92400E" stroke-width="14" stroke-linecap="round"
        opacity="0.3" transform="translate(3,4)"/>
  <path d="M 89 122 C 89 83 171 83 171 122"
        fill="none" stroke="#F59E0B" stroke-width="12" stroke-linecap="round"/>
  <path d="M 92 122 C 92 89 168 89 168 122"
        fill="none" stroke="#FCD34D" stroke-width="3" stroke-linecap="round" opacity="0.5"/>

  <!-- Corps sac -->
  <rect x="70" y="116" width="120" height="92" rx="10" fill="#92400E" opacity="0.2" transform="translate(3,4)"/>
  <rect x="70" y="116" width="120" height="92" rx="10" fill="#F59E0B"/>
  <rect x="70" y="116" width="120" height="16" rx="10" fill="#D97706"/>
  <rect x="70" y="125" width="120" height="7" fill="#D97706"/>
  <rect x="76" y="119" width="106" height="4" rx="2" fill="#FCD34D" opacity="0.4"/>

  <!-- Motif géo sur sac -->
  <g clip-path="url(#bagClip2)">
    <line x1="70" y1="146" x2="190" y2="146" stroke="#D97706" stroke-width="1" opacity="0.6"/>
    <line x1="70" y1="170" x2="190" y2="170" stroke="#D97706" stroke-width="1" opacity="0.6"/>
    <line x1="118" y1="132" x2="118" y2="208" stroke="#D97706" stroke-width="1" opacity="0.6"/>
    <line x1="142" y1="132" x2="142" y2="208" stroke="#D97706" stroke-width="1" opacity="0.6"/>
    <rect x="111" y="139" width="10" height="10" rx="1" transform="rotate(45 118 146)" fill="#E08E09" opacity="0.45"/>
    <rect x="135" y="139" width="10" height="10" rx="1" transform="rotate(45 142 146)" fill="#E08E09" opacity="0.45"/>
    <rect x="111" y="163" width="10" height="10" rx="1" transform="rotate(45 118 170)" fill="#E08E09" opacity="0.45"/>
    <rect x="135" y="163" width="10" height="10" rx="1" transform="rotate(45 142 170)" fill="#E08E09" opacity="0.45"/>
  </g>

  <!-- Bulle chat badge -->
  <circle cx="177" cy="194" r="28" fill="#1E0052"/>
  <circle cx="177" cy="194" r="23" fill="white"/>
  <circle cx="168" cy="194" r="3.5" fill="#4A1D96"/>
  <circle cx="177" cy="194" r="3.5" fill="#4A1D96"/>
  <circle cx="186" cy="194" r="3.5" fill="#4A1D96"/>
  <path d="M 162 204 L 153 216 L 167 210 Z" fill="white"/>

  <!-- Étoiles -->
  <g transform="translate(196, 57) rotate(15)">
    <polygon points="0,-9 2.2,-3 7.5,-3 3.5,1.5 5.5,7.5 0,4.5 -5.5,7.5 -3.5,1.5 -7.5,-3 -2.2,-3"
             fill="#FCD34D" opacity="0.9"/>
  </g>
  <circle cx="214" cy="75" r="2.5" fill="#FCD34D" opacity="0.6"/>

  <!-- ── TEXTE ── -->
  <!-- "Fëgg Jaay" -->
  <text x="280" y="150"
        font-family="Poppins, sans-serif"
        font-weight="700"
        font-size="82"
        fill="white"
        letter-spacing="-1">Fëgg Jaay</text>
  <!-- Underline accent doré -->
  <rect x="280" y="162" width="480" height="5" rx="2.5" fill="#F59E0B" opacity="0.7"/>
  <!-- Sous-titre -->
  <text x="282" y="200"
        font-family="Poppins, sans-serif"
        font-weight="400"
        font-size="26"
        fill="#C4B5FD"
        letter-spacing="2">Plateforme e-commerce WhatsApp</text>
</svg>